<?xml version="1.0" standalone="no"?>
<!DOCTYPE svg PUBLIC "-//W3C//DTD SVG 20010904//EN"
 "http://www.w3.org/TR/2001/REC-SVG-20010904/DTD/svg10.dtd">
<svg version="1.0" xmlns="http://www.w3.org/2000/svg"
 width="322.000000pt" height="180.000000pt" viewBox="0 0 322.000000 180.000000"
 preserveAspectRatio="xMidYMid meet">

<g transform="translate(0.000000,180.000000) scale(0.100000,-0.100000)"
fill="#000000" stroke="none">
<path d="M2053 1701 c-48 -37 -140 -109 -203 -160 -63 -50 -124 -98 -135 -105
-16 -12 -18 -18 -9 -33 17 -27 52 -17 114 33 30 24 128 100 218 170 89 69 162
127 162 129 0 9 -33 35 -45 35 -7 0 -53 -31 -102 -69z"/>
<path d="M1420 1740 c0 -16 5 -21 23 -18 12 2 22 10 22 18 0 8 -10 16 -22 18
-18 3 -23 -2 -23 -18z"/>
<path d="M1550 1735 c0 -9 9 -15 25 -15 16 0 25 6 25 15 0 9 -9 15 -25 15 -16
0 -25 -6 -25 -15z"/>
<path d="M1088 1728 c-23 -18 -39 -64 -32 -94 5 -20 2 -24 -15 -24 -13 0 -21
-6 -21 -16 0 -14 8 -16 47 -10 25 3 48 7 49 9 1 1 -1 35 -4 75 -6 67 -8 72
-24 60z"/>
<path d="M1180 1530 l0 -211 -27 -24 c-16 -13 -31 -25 -35 -25 -5 0 -8 52 -8
115 l0 115 -90 0 -90 0 0 -186 0 -186 58 6 c31 3 82 8 111 11 30 3 57 7 59 9
2 3 -1 13 -7 24 -8 15 -5 24 17 44 15 14 45 35 66 48 22 13 55 37 73 53 l33
29 0 168 c0 163 -1 169 -22 184 -15 11 -33 14 -55 10 -22 -4 -41 -1 -58 10
l-25 16 0 -210z"/>
<path d="M1710 1725 c0 -10 10 -15 30 -15 20 0 30 5 30 15 0 10 -10 15 -30 15
-20 0 -30 -5 -30 -15z"/>
<path d="M1917 1699 c-22 -13 -22 -45 -1 -53 19 -7 44 10 44 29 0 21 -23 34
-43 24z"/>
<path d="M1990 1524 c-241 -188 -280 -214 -323 -214 -57 0 -57 -1 -57 175 l0
163 -27 5 c-16 2 -46 4 -68 3 l-40 -1 -3 -165 -3 -165 -119 -80 c-66 -44 -120
-83 -120 -86 0 -12 285 -17 289 -5 10 25 65 66 99 72 55 10 85 28 222 134 69
53 139 105 155 115 17 11 67 48 112 83 46 35 98 68 117 73 50 14 58 47 17 68
-14 8 -62 -26 -251 -175z"/>
<path d="M1715 1570 c-4 -7 -3 -16 3 -22 14 -14 57 -6 57 12 0 18 -50 26 -60
10z"/>
<path d="M517 1543 c-15 -15 -5 -23 28 -23 24 0 35 5 35 15 0 15 -50 22 -63 8z"/>
<path d="M467 1433 c-4 -3 -7 -100 -7 -215 l0 -209 23 6 c12 3 31 10 42 14 11
5 31 13 45 18 14 6 39 14 55 19 l30 9 3 183 2 182 -93 0 c-52 0 -97 -3 -100
-7z"/>
<path d="M2152 1428 c-8 -10 34 -56 166 -182 413 -395 529 -514 506 -519 -11
-2 -30 0 -41 4 -11 4 -104 89 -207 188 -145 141 -194 182 -224 190 -31 8 -183
25 -297 34 -28 2 -24 5 45 46 96 57 110 69 110 96 0 24 -60 85 -107 109 -18 9
-48 16 -67 16 -36 0 -40 -2 -246 -161 -109 -84 -118 -89 -182 -90 -72 0 -35
-15 58 -23 181 -15 259 -24 379 -42 127 -18 139 -22 126 -38 -8 -9 34 -59 157
-186 163 -169 212 -207 249 -193 49 17 46 23 -137 200 -99 96 -177 179 -174
184 3 5 18 9 34 9 24 0 58 -27 185 -146 86 -81 163 -157 172 -171 25 -38 93
-72 160 -79 66 -7 106 6 101 34 -2 9 -93 105 -203 212 -110 107 -275 267 -366
357 -92 90 -171 163 -177 163 -5 0 -14 -6 -20 -12z"/>
<path d="M770 1325 c0 -10 10 -15 30 -15 20 0 30 5 30 15 0 10 -10 15 -30 15
-20 0 -30 -5 -30 -15z"/>
<path d="M731 1226 c-7 -8 -9 -34 -5 -73 l6 -60 47 8 c77 12 81 16 81 70 0 38
-4 51 -19 59 -28 14 -97 12 -110 -4z"/>
<path d="M1265 1085 c-5 -2 -68 -6 -140 -9 -142 -6 -199 -11 -260 -25 -22 -5
-67 -15 -100 -21 -101 -20 -108 -25 -100 -68 20 -112 38 -173 53 -181 19 -10
170 -26 407 -41 87 -6 160 -12 160 -13 1 -1 -1 -62 -3 -134 l-4 -133 -307 0
-308 0 -32 50 c-34 53 -93 99 -150 118 -108 37 -231 -21 -303 -142 l-30 -51 5
53 c8 101 104 195 299 289 85 42 118 63 118 76 0 40 -23 107 -37 107 -16 0
-229 -106 -308 -154 -27 -16 -85 -54 -128 -85 l-77 -55 0 -229 0 -229 78 7 77
7 23 -40 c12 -22 38 -54 58 -72 20 -17 34 -33 32 -35 -2 -2 -68 -7 -146 -11
-129 -6 -142 -9 -142 -25 0 -18 49 -19 1574 -19 866 0 1581 3 1590 6 9 3 16
15 16 25 0 18 -13 19 -332 19 -320 0 -331 1 -315 18 10 10 17 21 17 25 0 4
-60 8 -132 9 l-133 3 38 19 c21 10 45 29 54 42 l15 23 332 3 333 3 42 28 c47
31 75 83 87 156 6 35 4 47 -10 56 -32 24 -54 6 -76 -59 l-21 -63 -49 -2 c-59
-2 -60 3 -29 81 12 29 27 72 34 96 19 60 39 88 74 100 25 9 34 7 56 -9 27 -22
31 -19 15 12 -14 25 -62 49 -100 49 -53 0 -81 -42 -145 -217 l-37 -103 -84 0
c-49 0 -84 4 -84 10 0 6 10 10 23 10 45 0 64 52 31 84 -13 14 -55 16 -300 16
-166 0 -284 4 -284 9 0 20 -106 124 -149 146 -127 64 -263 23 -352 -107 l-32
-48 -146 0 -146 0 0 133 0 132 210 0 c304 1 378 22 429 124 45 88 75 171 63
172 -7 1 -23 3 -37 4 -14 2 -59 8 -100 13 -41 6 -113 14 -160 18 -47 3 -98 8
-115 10 -16 2 -93 6 -170 9 -77 3 -158 7 -180 9 -22 2 -44 2 -50 1z m-794
-630 c44 -23 69 -71 69 -130 0 -148 -178 -200 -250 -74 -70 126 56 268 181
204z m1527 -1 c42 -24 65 -63 70 -114 9 -93 -51 -160 -142 -160 -40 0 -52 5
-88 38 -37 35 -42 45 -46 94 -5 66 14 110 61 138 39 24 109 26 145 4z m412
-99 c0 -8 -7 -15 -15 -15 -16 0 -20 12 -8 23 11 12 23 8 23 -8z m182 -17 c-15
-15 -26 -4 -18 18 5 13 9 15 18 6 9 -9 9 -15 0 -24z m-849 -164 c26 -25 47
-48 47 -50 0 -2 -174 -4 -386 -4 l-387 0 39 44 39 44 185 4 c102 2 237 4 301
6 l116 2 46 -46z m-907 0 c18 -20 31 -40 28 -45 -3 -5 -70 -9 -150 -9 l-145 0
43 44 43 45 73 0 c72 1 74 0 108 -35z"/>
<path d="M359 405 c-56 -30 -55 -119 2 -159 91 -63 189 85 102 154 -30 23 -67
25 -104 5z m70 -59 c23 -28 -17 -68 -45 -45 -15 12 -19 41 -7 52 11 12 40 8
52 -7z"/>
<path d="M1866 398 c-36 -32 -42 -75 -16 -116 27 -43 60 -58 107 -46 46 11 78
59 68 103 -16 74 -105 107 -159 59z m90 -49 c19 -21 18 -21 -5 -40 -41 -33
-83 8 -45 45 20 21 27 20 50 -5z"/>
<path d="M193 973 l-53 -4 0 -65 c0 -35 2 -64 5 -64 6 0 66 34 109 62 27 18
34 28 29 43 -6 19 -23 36 -33 33 -3 -1 -29 -3 -57 -5z"/>
<path d="M2182 723 c4 -33 19 -38 95 -28 48 6 54 9 51 28 -3 20 -10 22 -76 25
l-73 3 3 -28z"/>
<path d="M2180 650 l0 -30 75 0 75 0 0 30 0 30 -75 0 -75 0 0 -30z"/>
<path d="M2628 608 c-43 -32 -40 -103 5 -128 24 -13 30 -13 54 0 40 22 52 73
26 108 -23 30 -60 39 -85 20z"/>
</g>
</svg>
